<mxfile host="drawio-plugin" modified="2022-02-13T18:32:30.803Z" agent="5.0 (Windows NT 6.2; Win64; x64) AppleWebKit/537.36 (KHTML, like Gecko) Chrome/89.0.4389.114 Safari/537.36" etag="Zg13v7grYpHIYDg4dMLI" version="15.5.4" type="embed"><diagram id="C5RBs43oDa-KdzZeNtuy" name="Page-1"><mxGraphModel dx="779" dy="303" grid="1" gridSize="10" guides="1" tooltips="1" connect="1" arrows="1" fold="1" page="1" pageScale="1" pageWidth="827" pageHeight="1169" math="0" shadow="0"><root><mxCell id="WIyWlLk6GJQsqaUBKTNV-0"/><mxCell id="WIyWlLk6GJQsqaUBKTNV-1" parent="WIyWlLk6GJQsqaUBKTNV-0"/><mxCell id="1" value="Employee" style="swimlane;fontStyle=1;align=center;verticalAlign=top;childLayout=stackLayout;horizontal=1;startSize=26;horizontalStack=0;resizeParent=1;resizeParentMax=0;resizeLast=0;collapsible=1;marginBottom=0;rounded=0;sketch=0;fontColor=#46495D;strokeColor=#788AA3;fillColor=#B2C9AB;" parent="WIyWlLk6GJQsqaUBKTNV-1" vertex="1"><mxGeometry x="230" y="20" width="170" height="246" as="geometry"/></mxCell><mxCell id="2" value="-employeeId: int&#10;-name: String&#10;-age: int&#10;-salary: int" style="text;strokeColor=none;fillColor=none;align=left;verticalAlign=top;spacingLeft=4;spacingRight=4;overflow=hidden;rotatable=0;points=[[0,0.5],[1,0.5]];portConstraint=eastwest;rounded=0;sketch=0;fontColor=#46495D;spacingTop=1;spacing=4;" parent="1" vertex="1"><mxGeometry y="26" width="170" height="64" as="geometry"/></mxCell><mxCell id="3" value="" style="line;strokeWidth=1;fillColor=none;align=left;verticalAlign=middle;spacingTop=-1;spacingLeft=3;spacingRight=3;rotatable=0;labelPosition=right;points=[];portConstraint=eastwest;rounded=0;sketch=0;fontColor=#46495D;" parent="1" vertex="1"><mxGeometry y="90" width="170" height="10" as="geometry"/></mxCell><mxCell id="4" value="+ getEmployeeId(): String&#10;+ setEmployeeId(String): void&#10;+ getName(): String&#10;+ setName(String): void&#10;+ getAge(): int&#10;+ setAge(int): void&#10;+ getSalary(): int&#10;+ setEmployeeId(String): void&#10;+ Report (): String" style="text;strokeColor=none;fillColor=none;align=left;verticalAlign=top;spacingLeft=4;spacingRight=4;overflow=hidden;rotatable=0;points=[[0,0.5],[1,0.5]];portConstraint=eastwest;rounded=0;sketch=0;fontColor=#46495D;" parent="1" vertex="1"><mxGeometry y="100" width="170" height="146" as="geometry"/></mxCell></root></mxGraphModel></diagram></mxfile>